#!OML:ASF F:\VICON\USERDATA\INSTALL\Justin_Nancy\Justin_Nancy.ASF
:FULLY-SPECIFIED
:DEGREES
48
root 0.567253 17.6267 -23.1288 -3.33366 -1.02016 -3.28226
lowerback 6.90504 0.148292 2.18122
upperback 1.48968 0.455591 3.83537
thorax -2.3489 0.221 2.69562
lowerneck -13.9808 -3.47832 -9.13978
upperneck 20.9857 -3.9214 5.38844
head 9.19365 -1.99011 2.9021
rclavicle 1.3418e-015 -2.70347e-014
rhumerus -29.7533 -13.8463 -77.4506
rradius 27.58
rwrist 9.07089
rhand -15.6973 12.0046
rfingers 7.12502
rthumb 10.4922 -17.7136
lclavicle 1.3418e-015 -2.70347e-014
lhumerus -29.9867 7.3529 88.1869
lradius 23.3368
lwrist -13.0614
lhand -11.5703 29.1853
lfingers 7.12502
lthumb 14.4711 58.6607
rfemur -4.39169 5.07977 29.0433
rtibia 20.7512
rfoot -8.10627 -6.21096
rtoes 1.87781
lfemur -22.3939 0.640639 -16.2966
ltibia 66.3088
lfoot -0.532523 0.699255
ltoes -2.03912
49
root 0.564247 17.603 -22.984 -3.30526 -1.34441 -3.19551
lowerback 6.97762 0.26781 2.21701
upperback 1.45802 0.619622 3.74808
thorax -2.42585 0.302139 2.57013
lowerneck -13.655 -3.45772 -9.26955
upperneck 20.6952 -3.90066 5.46226
head 9.03561 -1.98456 2.95129
rclavicle 1.41137e-014 2.14687e-014
rhumerus -29.2793 -12.8295 -77.9021
rradius 28.1047
rwrist 8.39173
rhand -15.6838 12.9103
rfingers 7.12502
rthumb 10.5052 -16.8072
lclavicle 1.41137e-014 2.14687e-014
lhumerus -30.4575 7.75413 88.0352
lradius 23.3138
lwrist -13.3432
lhand -11.6345 28.7486
lfingers 7.12502
lthumb 14.4092 58.2284
rfemur -4.1149 5.13297 29.0261
rtibia 21.2905
rfoot -8.94854 -6.17685
rtoes 2.40862
lfemur -23.2225 0.872747 -16.4721
ltibia 65.4492
lfoot -1.54969 1.45492
ltoes -2.61567
50
root 0.558392 17.5816 -22.8429 -3.17775 -1.33212 -3.50016
lowerback 7.11548 0.317846 2.57719
upperback 1.30836 0.727401 3.77191
thorax -2.65648 0.352473 2.38243
lowerneck -13.6701 -3.49651 -9.36594
upperneck 20.8121 -3.96631 5.60085
head 9.08885 -2.0093 3.00871
rclavicle 9.29318e-015 -1.74931e-014
rhumerus -28.8877 -12.0434 -78.1996
rradius 28.6365
rwrist 7.90769
rhand -16.025 12.0723
rfingers 7.12502
rthumb 10.1761 -17.6616
lclavicle 9.29318e-015 -1.74931e-014
lhumerus -30.8624 8.23079 87.8489
lradius 23.1171
lwrist -14.1609
lhand -11.5387 28.7584
lfingers 7.12502
lthumb 14.5015 58.2316
rfemur -3.93386 5.07436 29.4373
rtibia 21.7111
rfoot -9.59286 -6.34088
rtoes 3.07953
lfemur -24.1836 0.931516 -16.1878
ltibia 64.4866
lfoot -2.41904 2.08375
ltoes -4.33543
51
root 0.549168 17.5593 -22.6992 -3.07795 -1.38273 -3.87572
lowerback 7.28586 0.387597 2.96799
upperback 1.19065 0.866169 3.80707
thorax -2.87145 0.416833 2.18586
lowerneck -13.6753 -3.55135 -9.1161
upperneck 20.8087 -4.04854 5.37507
head 9.08538 -2.05154 2.87825
rclavicle -6.90777e-015 1.74931e-014
rhumerus -28.5641 -11.4964 -78.4674
rradius 29.286
rwrist 7.7766
rhand -15.8626 10.7792
rfingers 7.12502
rthumb 10.3327 -18.947
lclavicle -6.90777e-015 1.74931e-014
lhumerus -31.2823 8.2678 87.7607
lradius 23.0216
lwrist -14.0676
lhand -11.5691 28.9543
lfingers 7.12502
lthumb 14.4722 58.4296
rfemur -3.64361 5.18125 29.955
rtibia 22.0329
rfoot -10.2439 -6.64329
rtoes 2.99422
lfemur -25.0742 1.07647 -15.7809
ltibia 63.3975
lfoot -2.7197 2.81115
ltoes -2.17293
52
root 0.547664 17.5391 -22.5499 -3.03775 -1.82154 -4.04561
lowerback 7.25696 0.50254 3.25343
upperback 1.26612 1.03486 3.79612
thorax -2.77469 0.498696 1.99828
lowerneck -13.8097 -3.52008 -9.19854
upperneck 20.9047 -3.97304 5.36552
head 9.13934 -2.02272 2.89797
rclavicle -4.37326e-015 2.3059e-014
rhumerus -28.0805 -10.4252 -78.9499
rradius 30.0883
rwrist 7.21024
rhand -15.8228 11.2313
rfingers 7.12502
rthumb 10.3711 -18.4929
lclavicle -4.37326e-015 2.3059e-014
lhumerus -31.6717 8.55215 87.6103
lradius 23.0983
lwrist -13.7303
lhand -12.0175 28.2571
lfingers 7.12502
lthumb 14.0401 57.7629
rfemur -3.19033 5.30681 30.2033
rtibia 22.2364
rfoot -10.8404 -6.58107
rtoes 2.34607
lfemur -25.7298 1.52461 -15.6421
ltibia 62.1384
lfoot -2.95901 3.66847
ltoes -0.41415
53
root 0.542415 17.5128 -22.4088 -2.94876 -2.19346 -4.23145
lowerback 7.18218 0.607646 3.51751
upperback 1.38936 1.18272 3.77799
thorax -2.60123 0.571713 1.81841
lowerneck -14.3229 -3.4958 -9.44104
upperneck 21.284 -3.89996 5.61046
head 9.3706 -1.97837 3.03377
rclavicle 4.42296e-015 -3.18055e-014
rhumerus -27.2592 -9.50784 -79.456
rradius 30.6542
rwrist 6.74105
rhand -16.2189 11.8841
rfingers 7.12502
rthumb 9.98898 -17.8588
lclavicle 4.42296e-015 -3.18055e-014
lhumerus -31.6917 8.98788 87.4449
lradius 22.9707
lwrist -13.7642
lhand -12.2082 28.0213
lfingers 7.12502
lthumb 13.8563 57.5397
rfemur -2.77357 5.55335 30.4877
rtibia 22.2975
rfoot -11.2842 -6.6532
rtoes 2.24131
lfemur -26.4271 1.82129 -15.4659
ltibia 60.732
lfoot -3.96047 4.30222
ltoes -1.54372
54
root 0.536994 17.4947 -22.2663 -2.73762 -2.05646 -4.354
lowerback 7.14693 0.607017 3.68228
upperback 1.28022 1.1976 3.76034
thorax -2.69087 0.576405 1.70647
lowerneck -14.3101 -3.51311 -9.44453
upperneck 21.1958 -3.9244 5.62321
head 9.33988 -1.9878 3.03461
rclavicle 9.54166e-015 4.92986e-014
rhumerus -26.8918 -8.74294 -79.6967
rradius 31.2835
rwrist 6.20447
rhand -16.5081 11.9737
rfingers 7.12502
rthumb 9.70996 -17.7825
lclavicle 9.54166e-015 4.92986e-014
lhumerus -31.9463 9.10622 87.4087
lradius 22.7958
lwrist -13.4726
lhand -12.2765 28.9689
lfingers 7.12502
lthumb 13.7905 58.4918
rfemur -2.47509 5.43064 30.6726
rtibia 22.3158
rfoot -11.805 -6.80996
rtoes 2.20608
lfemur -27.231 1.75408 -15.4102
ltibia 59.1226
lfoot -5.88676 4.69007
ltoes -7.50348
55
root 0.534623 17.4896 -22.113 -2.61122 -2.03778 -4.38513
lowerback 7.11036 0.636353 3.81884
upperback 1.15489 1.24924 3.68602
thorax -2.7958 0.598849 1.5481
lowerneck -13.7303 -3.50426 -9.1742
upperneck 20.7248 -3.95485 5.35342
head 9.06019 -2.0126 2.89062
rclavicle 1.58531e-014 1.43125e-014
rhumerus -26.7129 -8.1202 -79.846
rradius 31.752
rwrist 5.71619
rhand -16.5182 11.7187
rfingers 7.12502
rthumb 9.70021 -18.0379
lclavicle 1.58531e-014 1.43125e-014
lhumerus -32.5778 9.17014 87.2774
lradius 22.9515
lwrist -13.8386
lhand -11.5773 30.1906
lfingers 7.12502
lthumb 14.4643 59.6665
rfemur -1.98148 5.29199 30.7312
rtibia 22.2339
rfoot -12.3029 -6.84343
rtoes 1.70853
lfemur -27.7221 1.6834 -15.4612
ltibia 57.2836
lfoot -3.23614 5.71752
ltoes 3.92966
56
root 0.531827 17.4803 -21.9672 -2.4276 -2.27186 -4.47806
lowerback 7.12311 0.732485 4.03017
upperback 1.07437 1.39542 3.59491
thorax -2.87891 0.667482 1.32129
lowerneck -13.8769 -3.51324 -9.12607
upperneck 20.9293 -3.97791 5.38257
head 9.15909 -2.0165 2.89096
rclavicle 2.27857e-014 7.15625e-015
rhumerus -26.2506 -7.84521 -80.0051
rradius 31.9722
rwrist 5.45022
rhand -16.0953 11.7953
rfingers 7.12502
rthumb 10.1083 -17.9419
lclavicle 2.27857e-014 7.15625e-015
lhumerus -33.0389 9.52836 86.9797
lradius 23.0748
lwrist -14.1933
lhand -11.1312 30.2952
lfingers 7.12502
lthumb 14.8941 59.7398
rfemur -1.51686 5.35207 30.8553
rtibia 22.0668
rfoot -12.7 -6.7727
rtoes 1.6672
lfemur -28.2102 1.7899 -15.3957
ltibia 55.2575
lfoot -6.92746 5.75234
ltoes -8.56808
